<svg width="592" height="510" viewBox="0 0 592 510" fill="none" xmlns="http://www.w3.org/2000/svg">
<g clip-path="url(#clip0_101_7)">
<path d="M18.6667 219.733C18.6667 463.2 18 444.133 27.3333 462.667C36.6667 481.2 49.7333 493.6 70.1333 503.467L82.2667 509.333H254.533H426.667L438.8 503.333C453.733 495.733 459.6 491.6 470.933 480.4C481.467 470 489.067 458 494.267 443.2L498 432.667L497.6 271.6C497.067 94.1333 496.933 97.8667 505.333 69.3333C514 40.4 526.933 20.4 547.333 4.26669L552.667 0.133362L285.733 -1.58943e-07H18.6667V219.733ZM464 224.667V426.8L460.533 433.733C455.2 444.267 446.267 456.133 438 463.733C429.467 471.6 414.4 479.467 404.667 481.2C400.8 482 334.8 482.533 249.2 482.667L100.533 482.8L92.6667 478.8C73.7333 469.333 57.3333 450.533 50.8 431.067C48 422.8 48 421.6 48 222.667V22.6667H256H464V224.667Z" fill="#010067"/>
<path d="M72.1333 57.8666C71.2 58.9333 70.6667 60.9333 70.9333 62.2666C71.3333 64.5333 74.6667 64.6666 128.533 65.0666L185.6 65.3333L193.467 61.8666C197.733 59.8666 201.333 58 201.333 57.4666C201.333 57.0666 172.667 56.5333 137.6 56.2666C82.1333 55.8666 73.6 56.1333 72.1333 57.8666Z" fill="#010067"/>
<path d="M328 66.2667C335.867 72.1333 348.8 86.8 354.133 96L356.533 100H400.933H445.333V80V60H382.533H319.733L328 66.2667Z" fill="#010067"/>
<path d="M71.2 99.3334C70.6667 100.4 70.6667 102.267 71.2 103.333C71.8667 105.067 76.6667 105.333 103.733 105.333H135.467L139.333 101.333L143.2 97.3334H107.6C77.0667 97.3334 71.8667 97.6 71.2 99.3334Z" fill="#010067"/>
<path d="M72.8 140.4C71.4667 141.333 70.5333 143.333 70.9333 144.8C71.3333 147.2 72.8 147.333 92.6667 147.733C111.6 148 114.133 147.867 115.6 145.733C116.533 144.533 117.333 142.4 117.333 141.2C117.333 139.067 115.333 138.933 96.2667 138.8C80.6667 138.667 74.6667 139.067 72.8 140.4Z" fill="#010067"/>
<path d="M370.667 145.6C370.667 148.8 369.733 157.333 368.667 164.533C367.6 171.867 366.667 178.267 366.667 178.933C366.667 179.467 384 180 405.2 180C435.867 180 443.867 179.6 444.4 178.267C445.333 175.6 445.6 144.8 444.533 142.267C443.867 140.267 440 140 407.2 140H370.667V145.6Z" fill="#010067"/>
<path d="M71.2 180.667C70.6667 181.733 70.6667 183.6 71.2 184.667C71.8667 186.4 75.0667 186.667 92.2667 186.4L112.667 186V182.667V179.333L92.2667 178.933C75.0667 178.667 71.8667 178.933 71.2 180.667Z" fill="#010067"/>
<path d="M71.2 224.667C70.6667 225.733 70.6667 227.6 71.2 228.667C71.7333 230.4 76.2667 230.667 100 230.667C115.333 230.667 128 230.4 128 230C128 229.733 127.333 227.867 126.4 226L124.933 222.667H98.4C76.1333 222.667 71.7333 222.933 71.2 224.667Z" fill="#010067"/>
<path d="M403.067 225.333L373.467 226L381.333 239.2C392.267 257.333 391.867 260.667 378.8 262.267C375.067 262.667 372 263.6 372 264.133C372 265.467 439.867 265.733 443.2 264.533C445.067 263.867 445.333 260.8 445.333 244.667C445.333 226 445.333 225.6 442.4 224.8C440.667 224.4 437.867 224.133 436 224.267C434.133 224.4 419.333 224.933 403.067 225.333Z" fill="#010067"/>
<path d="M105.333 264C71.7333 264.667 71.3333 264.667 70.9333 267.6C70.5333 269.867 71.3333 270.667 74.6667 271.333C81.2 272.8 149.333 271.6 149.333 270C149.2 267.467 146 264.4 142.667 263.867C140.8 263.6 124 263.6 105.333 264Z" fill="#010067"/>
<path d="M71.2 306C70.6667 307.067 70.6667 308.933 71.2 310C71.8667 311.733 78.9333 312 124 312H176V308V304H124C78.9333 304 71.8667 304.267 71.2 306Z" fill="#010067"/>
<path d="M361.2 314.933C356.4 324.4 356.533 328.267 362 339.6L365.6 346.667L405.067 346.4L444.667 346V326.667V307.333L405.067 306.933L365.333 306.667L361.2 314.933Z" fill="#010067"/>
<path d="M71.2 348.667C70.6667 349.733 70.6667 351.6 71.2 352.667C71.8667 354.4 78.6667 354.667 121.067 354.667H170.133L172.4 350.667L174.8 346.667H123.333C78.8 346.667 71.8667 346.933 71.2 348.667Z" fill="#010067"/>
<path d="M71.7333 391.6C70.2667 397.333 70.2667 397.333 116 397.333H159.733L160.533 394.267C160.933 392.667 161.333 390.933 161.333 390.267C161.333 389.733 141.333 389.333 116.8 389.333C75.6 389.333 72.2667 389.467 71.7333 391.6Z" fill="#010067"/>
<path d="M294.133 401.6C290.533 408.4 285.867 417.067 283.733 420.933C281.733 424.8 280 428.133 280 428.667C280 429.067 317.067 429.2 362.4 429.067L444.667 428.667L444.933 410.8C445.067 401.067 444.8 392.133 444.4 391.2C443.867 389.6 431.467 389.333 372.133 389.333H300.667L294.133 401.6Z" fill="#010067"/>
</g>
<defs>
<clipPath id="clip0_101_7">
<rect width="592" height="509.333" fill="white"/>
</clipPath>
</defs>
</svg>
